<?xml version="1.0"?>
<svg xmlns="http://www.w3.org/2000/svg" viewBox="0 0 372.4 47" enable-background="new 0 0 372.4 47" xml:space="preserve">
		<path d="M134,0.8v46.1h-6.6l-26-32.5c-0.6-0.8-1.9-0.3-1.9,0.7v31.9H93V0.8h6.6l26,32.5c0.6,0.8,1.9,0.3,1.9-0.7V0.8H134z
			 M323.3,0.9h-6.6v46.1h6.6V0.9z M345.7,7.4h26.7V0.9H338v46.1h34.3v-6.6h-26.7c-0.6,0-1.1-0.5-1.1-1.1V25.5c0-0.6,0.5-1.1,1.1-1.1
			h20.1v-6.6h-20.1c-0.6,0-1.1-0.5-1.1-1.1V8.5C344.6,7.9,345.1,7.4,345.7,7.4z M52.7,7.4h26.7V0.9H45v46.1h34.3v-6.6H52.7
			c-0.6,0-1.1-0.5-1.1-1.1V25.5c0-0.6,0.5-1.1,1.1-1.1h20.1v-6.6H52.7c-0.6,0-1.1-0.5-1.1-1.1V8.5C51.6,7.9,52.1,7.4,52.7,7.4z
			 M179.6,0.9h-34.3v6.6h24.3c0.9,0,1.4,1,0.8,1.7l-25.1,31.2v6.6h34.3v-6.6h-24.3c-0.9,0-1.4-1-0.8-1.7l25.1-31.2V0.9z M34.8,32.5
			c0,8-6.5,14.5-14.5,14.5H0V0.9h18.4c6.5,0,11.8,5.3,11.8,11.8c0,2.7-0.9,5.2-2.5,7.2C32,22.5,34.8,27.1,34.8,32.5z M6.6,16.9
			c0,0.6,0.5,1.1,1.1,1.1l9.8,0c2.9,0,5.4-2.3,5.4-5.2c0-1.4-0.6-2.8-1.5-3.7c-0.9-0.9-2.3-1.5-3.7-1.5h-10C7.1,7.5,6.6,8,6.6,8.6
			V16.9z M27.5,32.6c0-2.2-0.9-4.2-2.3-5.7c-1.4-1.4-3.4-2.3-5.6-2.3H7.7c-0.6,0-1.1,0.5-1.1,1.1v13.7c0,0.6,0.5,1.1,1.1,1.1h11.7
			C23.7,40.4,27.4,36.9,27.5,32.6z M292.8,40.3c-9.5,0-17.3-7.4-17.3-16.5s7.7-16.5,17.3-16.5c4.7,0,8.9,1.8,12,4.6l4.8-4.8
			c-4.4-4-10.2-6.4-16.8-6.4c-13.4,0-24.2,10.3-24.2,23s10.8,23,24.2,23c6.5,0,12.4-2.4,16.8-6.4l-4.8-4.8
			C301.7,38.6,297.5,40.3,292.8,40.3z M244.8,39.6v6.6c-3.5,0-7.1-0.7-10.4-2.1c-0.5-0.2-0.9-0.4-1.3-0.6c-0.5,0.3-1,0.5-1.5,0.8
			c-1.6,0.8-3.3,1.3-5.1,1.7c-0.9,0.2-1.8,0.3-2.7,0.4c-0.9,0.1-1.8,0.1-2.7,0.1c-1.8-0.1-3.7-0.3-5.5-1c-1.8-0.6-3.6-1.6-5.1-2.9
			c-0.8-0.6-1.4-1.4-2-2.2c-0.6-0.8-1.1-1.6-1.5-2.5c-0.4-0.9-0.8-1.8-1.1-2.8c-0.3-1-0.4-2-0.4-3c0-1,0.1-2.1,0.3-3
			c0.2-1,0.6-1.9,1-2.8c0.8-1.7,1.9-3.2,3.1-4.5c1-1.1,2.2-2.2,3.4-3.1c-0.2-0.5-0.4-0.9-0.6-1.4c-0.6-1.7-1-3.5-1.1-5.5
			c-0.1-1.9,0.2-4,1.1-5.9c0.9-1.9,2.4-3.6,4.3-4.6c0.9-0.5,1.9-0.9,2.9-1.1c1-0.2,2-0.3,3-0.3c1,0.1,2.1,0.3,3.2,0.7
			c1,0.4,2,1.1,2.8,2c0.8,0.9,1.3,2,1.6,3c0.3,1.1,0.4,2.1,0.3,3.2c0,0.5-0.1,1-0.2,1.5c0,0.2-0.1,0.5-0.2,0.7l-0.1,0.3
			c0,0.1-0.1,0.2-0.1,0.4c-0.4,1.1-1,2-1.6,2.7c-1.2,1.5-2.6,2.5-3.9,3.5c-1.2,0.9-2.3,1.7-3.5,2.5c1.2,2.1,2.3,4.2,3.6,6.1
			c1.6,2.5,3.4,4.7,5.4,6.7c0.4,0.4,0.8,0.8,1.2,1.1c0.8,0.7,2,0.4,2.4-0.6c0.5-1.2,0.7-2.4,0.6-3c-0.1-1-0.5-2.1-1.1-3.1l5.8-3.2
			c0.9,1.7,1.6,3.6,1.7,5.7c0.1,1,0,2.1-0.2,3.1c-0.2,1-0.5,2-1,3c-0.1,0.2-0.2,0.3-0.2,0.5c-0.5,0.9,0,1.9,1,2.1
			C241.9,39.5,243.3,39.6,244.8,39.6z M218.7,13.6c0.3,1,1.5,1.4,2.3,0.8c0.6-0.4,2.3-1.8,3.1-2.9c0.4-0.5,0.7-0.9,0.8-1.3
			c0,0,0-0.1,0.1-0.2l0.1-0.2c0-0.1,0.1-0.3,0.1-0.4c0.1-0.3,0.1-0.5,0.1-0.8c0.1-1.1-0.3-1.9-0.8-2.5c-1.1-1.3-3.4-1-4.6-0.1
			C217.1,8.3,218.3,12.6,218.7,13.6z M225.4,40.2c1.2-0.2,1.7-1.8,0.7-2.6c-3.2-2.8-7-7.5-9.4-12c-0.5-1-1.8-1.1-2.5-0.2
			c0,0,0,0,0,0c-0.8,1.1-1.5,2.2-1.9,3.3c-0.4,1.1-0.6,2.2-0.5,3.3c0.1,1,0.4,2.1,1,3.1c0.6,1,1.3,2,2.1,2.7
			c0.8,0.7,1.8,1.4,2.9,1.8c1.1,0.4,2.3,0.7,3.6,0.8C222.5,40.5,224,40.5,225.4,40.2z"/>
</svg>