<?xml version="1.0" encoding="UTF-8" standalone="no"?>
<!-- Created with Inkscape (http://www.inkscape.org/) -->

<svg
   version="1.1"
   id="svg1"
   width="1400.1555"
   height="1126.9976"
   viewBox="0 0 1400.1555 1126.9976"
   sodipodi:docname="Gemini_Generated_Image_hf33p4hf33p4hf33.svg"
   inkscape:version="1.4 (86a8ad7, 2024-10-11)"
   xmlns:inkscape="http://www.inkscape.org/namespaces/inkscape"
   xmlns:sodipodi="http://sodipodi.sourceforge.net/DTD/sodipodi-0.dtd"
   xmlns="http://www.w3.org/2000/svg"
   xmlns:svg="http://www.w3.org/2000/svg">
  <defs
     id="defs1" />
  <sodipodi:namedview
     id="namedview1"
     pagecolor="#ffffff"
     bordercolor="#000000"
     borderopacity="0.25"
     inkscape:showpageshadow="2"
     inkscape:pageopacity="0.0"
     inkscape:pagecheckerboard="0"
     inkscape:deskcolor="#d1d1d1"
     inkscape:zoom="0.35259434"
     inkscape:cx="290.70234"
     inkscape:cy="964.28094"
     inkscape:window-width="1368"
     inkscape:window-height="842"
     inkscape:window-x="-6"
     inkscape:window-y="-6"
     inkscape:window-maximized="1"
     inkscape:current-layer="g1" />
  <g
     inkscape:groupmode="layer"
     inkscape:label="Image"
     id="g1"
     transform="translate(-972.40134,116.89055)">
    <path
       style="fill:#000000"
       d="m 972.40134,924.10702 v -86 h 17.5 17.49996 v 35.0222 35.0223 l 90,-0.09 90,-0.089 v -34.9327 -34.9328 h 18 18 v 86 85.99998 h -18 -18 v -35.99998 -36 h -90 -90 v 36 35.99998 h -17.49996 -17.5 z m 328.09986,83.95198 c -13.5311,-3.5435 -22.0446,-10.77908 -26.1928,-22.26118 -2.1029,-5.8207 -2.2621,-8.143 -2.6633,-38.8474 -0.4533,-34.6893 0.1955,-43.3446 3.8937,-51.9412 2.5666,-5.9663 10.1598,-13.2333 17.1905,-16.4521 11.9732,-5.4815 13.1457,-5.5409 103.229,-5.2333 l 82.943,0.2832 8.0868,2.8286 c 14.6382,5.12 21.9113,13.0862 24.922,27.2969 2.0135,9.5036 2.1111,71.4575 0.1244,78.9176 -3.0164,11.3265 -8.1469,17.89068 -17.2984,22.13198 -11.3167,5.2448 -12.2623,5.2931 -102.8348,5.2525 -79.8221,-0.036 -84.368,-0.1341 -91.4001,-1.9756 z m 171.6943,-29.25048 c 1.8118,-0.9893 4.1727,-3.2393 5.2463,-5 1.8113,-2.9706 1.9523,-5.1913 1.9558,-30.7942 0,-26.87 -0.057,-27.7082 -2.3008,-32 -4.3822,-8.3808 0.6824,-7.904 -83.9776,-7.9057 -80.3626,0 -78.6927,-0.1043 -83.3293,5.1195 -3.9225,4.4193 -4.3886,8.0964 -4.3886,34.627 0,26.9057 0.3975,29.5867 5.0046,33.7561 4.887,4.4226 5.4693,4.4518 83.9954,4.2178 69.5861,-0.2074 74.7173,-0.3406 77.7942,-2.0205 z m 89.4489,-36.9515 0.2569,-68.25 16.75,-0.2742 16.75,-0.2742 v 2.5242 c 0,1.3883 0.1125,2.524 0.25,2.5237 0.1375,-3e-4 2.725,-1.0128 5.75,-2.25 l 5.5,-2.2495 75.3801,-0.2861 c 65.0934,-0.2471 76.5564,-0.072 84,1.2867 17.0707,3.1148 27.0252,10.5427 31.354,23.396 2.1686,6.4391 2.2319,7.9155 2.5441,59.3534 l 0.3201,52.74998 h -17.0039 -17.0039 l -0.2952,-47.74998 c -0.2824,-45.6641 -0.3827,-47.8983 -2.2953,-51.1455 -1.1,-1.8675 -3.2703,-4.3425 -4.8229,-5.5 -2.801,-2.0882 -3.3883,-2.1067 -76,-2.3836 -82.7285,-0.3156 -79.4169,-0.5922 -84.4814,7.0582 l -2.6957,4.0721 -0.2868,47.8244 -0.2867,47.82438 h -16.9702 -16.9702 z m 316.8157,66.69428 c -14.5751,-3.1604 -24.24,-11.13888 -28.2139,-23.29098 -1.9803,-6.0558 -2.2139,-9.2578 -2.6006,-35.6533 -0.4607,-31.4418 0.4129,-43.836 3.7111,-52.6512 2.8755,-7.6856 8.769,-14.1019 16.3472,-17.7974 12.3065,-6.0013 13.1907,-6.0557 97.5128,-6.0078 70.5968,0.04 81.4342,0.3457 86.4346,2.4381 1.6367,0.6848 1.75,-0.732 1.75,-21.8747 v -22.607 h 17 17 l 0.1375,84.75 c 0.076,46.6125 0.1882,86.77498 0.25,89.24998 l 0.1125,4.5 -16.75,0.2742 c -14.9723,0.2451 -16.75,0.1 -16.75,-1.3666 0,-1.2794 -0.6056,-1.4989 -2.75,-0.9966 -8.9184,2.089 -24.1245,2.4977 -91.75,2.4656 -60.3564,-0.029 -76.2576,-0.3083 -81.4412,-1.4323 z m 166.428,-29.94428 c 2.1927,-1.1 5.0243,-3.5573 6.2923,-5.4607 2.2922,-3.4407 2.3038,-3.6262 2.0132,-32.1787 -0.2771,-27.2243 -0.4,-28.8648 -2.3634,-31.5393 -1.1391,-1.5517 -3.6141,-3.6127 -5.5,-4.5799 -3.1958,-1.6391 -8.5269,-1.741 -78.4289,-1.5 l -75,0.2586 -3.2651,2.3288 c -6.4817,4.6232 -6.7047,5.7569 -7.015,35.6712 -0.2518,24.2764 -0.1005,27.3459 1.5,30.4289 2.452,4.7233 6.4426,7.3828 12.0439,8.0267 2.6049,0.2994 36.4612,0.5444 75.2362,0.5444 68.5044,0 70.6129,-0.057 74.4868,-2 z m 117.6689,29.96408 c -8.8591,-1.9228 -14.8831,-5.0783 -20.3173,-10.64268 -6.8391,-7.0028 -8.3335,-12.1696 -8.3362,-28.8214 0,-17.4197 1.4895,-22.1792 9.4079,-30.0041 11.1013,-10.9701 19.1577,-12.0868 86.0899,-11.933 25.575,0.059 60.3375,0.069 77.25,0.022 l 30.75,-0.0849 v -8.75 c 0,-10.8192 -1.8277,-14.589 -7.838,-16.2074 -2.5806,-0.6949 -32.0812,-1.1422 -85.7956,-1.3008 l -81.8664,-0.2418 -0.2785,-13.7955 -0.2785,-13.7955 88.2785,0.3096 c 86.9082,0.3048 88.375,0.3425 94.4927,2.4295 13.6911,4.6706 21.7686,12.0391 25.4857,23.2485 2.1181,6.3876 2.2022,8.3109 2.5727,58.8534 l 0.383,52.24998 h -17.1848 c -15.3918,0 -17.1203,-0.1681 -16.5665,-1.6112 0.5133,-1.3376 0.1493,-1.4851 -2.143,-0.8685 -1.5187,0.4086 -4.5613,1.1141 -6.7613,1.5677 -2.2,0.4537 -39.325,0.8087 -82.5,0.7889 -62.8151,-0.029 -79.7676,-0.311 -84.8443,-1.4128 z m 168.3972,-27.13388 c 5.4469,-2.9161 6.4471,-5.6119 6.4471,-17.3773 v -9.9529 h -79.4798 c -71.012,0 -79.9121,0.173 -83.5384,1.624 -5.1468,2.0593 -6.9818,5.5494 -6.9818,13.2793 0,10.0902 2.4189,12.9285 11.988,14.0663 3.0316,0.3605 37.462,0.6273 76.512,0.5929 70.8817,-0.062 71.0068,-0.066 75.0529,-2.2323 z m -1087.2,-295.5683 c -0.5536,-0.8957 -5.3882,-26.7339 -10.8078,-57.7619 -4.1917,-23.9982 -13.2255,-75.02194 -18.5018,-104.5 -2.1657,-12.1 -5.9785,-33.475 -8.4728,-47.5 -4.2404,-23.8436 -13.4684,-75.58618 -22.5604,-126.5 -2.1608,-12.1 -7.9613,-44.5 -12.8901,-72 -4.9287,-27.5 -10.5843,-59.225 -12.5681,-70.5 -5.1858,-29.47512 -13.7668,-77.45438 -20.5675,-114.999997 -3.2377,-17.875 -7.9511,-44.2 -10.4742,-58.5 -2.5231,-14.3 -6.5788,-37.0249996 -9.0128,-50.5 -2.434,-13.475 -5.8225,-32.375 -7.53,-42 -1.7075,-9.625 -4.6487,-25.75514 -6.5359,-35.84476 -3.565,-19.058583 -3.94,-22.156893 -2.6815,-22.152813 2.0146,0.007 40.1159,4.24744 58.25,6.48361 35.0643,4.32386 40.7812,6.03702 49.3059,14.775103 5.6881,5.83048 6.8514,7.98042 21.7729,40.23886 5.5971,12.1 13.4265,28.975 17.3988,37.5 3.9722,8.5250004 8.4796,18.20000041 10.0164,21.5000004 1.5367,3.3 7.9388,16.5749996 14.2268,29.4999996 6.2881,12.925 14.1928,29.35 17.5662,36.5 11.098,23.52298 43.3002,87.707307 51.6764,102.999997 9.9693,18.20118 19.1625,32.14665 28.6694,43.48966 34.1001,40.68612 77.7178,64.34947 135.3672,73.43907 56.8605,8.9652 235.9199,10.36523 318.5,2.49028 21.0741,-2.00965 50.2247,-8.76993 69.2091,-16.05019 18.8236,-7.21857 44.5619,-23.04626 60.3734,-37.12638 21.0047,-18.70472 34.0959,-35.92577 51.2497,-67.41725 8.4584,-15.52824 43.7403,-86.100697 57.4057,-114.825187 29.4035,-61.8061996 39.4996,-83.2229 50.4412,-107 18.2216,-39.5974 18.2695,-39.69185 22.5768,-44.5337 5.3032,-5.961233 11.9408,-9.419753 21.7441,-11.329813 12.6836,-2.47125 87.1536,-11.31625 88.0159,-10.45389 0.3502,0.35019 -1.5749,11.31864 -11.1132,63.317403 -2.5222,13.75 -7.0106,38.725 -9.9742,55.5000004 -2.9636,16.7749996 -6.5005,36.5749996 -7.8599,43.9999996 -1.3593,7.425 -3.8809,21.6 -5.6034,31.5 -1.7225,9.9 -7.1528,40.274997 -12.0673,67.499997 -12.5744,69.65897 -16.4068,91.04246 -19.8042,110.5 -1.6325,9.35 -4.9933,28.025 -7.4682,41.5 -2.475,13.475 -6.3685,35.3 -8.6521,48.5 -2.2837,13.2 -7.0091,39.975 -10.501,59.5 -11.9561,66.85278 -27.5657,154.85976 -40.5285,228.5 -7.4868,42.5313 -9.2492,51.9372 -9.8725,52.6897 -0.3143,0.3794 -14.2964,-0.6353 -31.0714,-2.2549 -16.775,-1.6195 -40.201,-3.8304 -52.0579,-4.9129 -24.1224,-2.2024 -31.7715,-4.0602 -39.1557,-9.5098 -5.7047,-4.2101 -8.0074,-8.8067 -22.7994,-45.5121 -41.0255,-101.80185 -41.5952,-103.08765 -53.9455,-121.75348 -24.8575,-37.56896 -59.663,-54.36629 -120.5415,-58.17403 -73.2754,-4.58313 -189.3375,-3.64169 -238.5673,1.93514 -20.1879,2.28691 -40.9069,7.95115 -55.9111,15.28517 -27.8374,13.60679 -49.1214,40.334 -67.0578,84.2072 -16.0291,39.20792 -20.1043,49.24582 -27.2013,67 -4.397,11 -10.4963,26.4388 -13.554,34.3085 -6.533,16.8144 -10.07,21.5487 -19.5111,26.1161 -7.1589,3.4634 -10.3017,3.9377 -50.6974,7.6523 -15.675,1.4414 -36.7432,3.3835 -46.8183,4.3158 -10.0752,0.9323 -18.5481,1.3234 -18.8288,0.8692 z"
       id="path1" />
  </g>
</svg>
