<svg xmlns="http://www.w3.org/2000/svg" width="2935" height="1036" viewBox="0 0 2935 1036" version="1.1"><path d="" stroke="none" fill="#080404" fill-rule="evenodd"/><path d="M 153.500 17.056 C 128.355 18.285, 91.354 23.200, 81.758 26.585 C 72.565 29.829, 68.192 35.760, 65.513 48.622 C 61.882 66.054, 50.634 141.527, 45.561 182.500 C 18.515 400.953, 17.271 598.451, 41.569 816 C 49.220 884.499, 63.413 980.144, 67.753 992.453 C 71.180 1002.172, 78.227 1006.392, 96 1009.369 C 142.949 1017.234, 186.637 1018.226, 232.500 1012.467 C 271.852 1007.526, 278.690 1004.509, 282.986 990.190 C 286.403 978.803, 298.097 902.486, 304.928 847 C 330.037 643.029, 332.432 453.909, 312.445 253.500 C 304.386 172.690, 287.570 54.553, 282.022 39.770 C 277.885 28.747, 271.068 25.649, 242 21.578 C 210.229 17.128, 181.767 15.674, 153.500 17.056 M 150.759 33.348 C 147.891 36.005, 147.950 35.779, 144.465 57.500 C 143.052 66.300, 141.514 74.438, 141.046 75.583 C 140.312 77.381, 138.773 77.834, 129.847 78.880 C 116.852 80.402, 109.949 82.331, 106.200 85.486 C 100.524 90.261, 97.935 99.300, 90.572 140.051 C 73.105 236.717, 60.832 357.897, 58.421 457.500 C 57.948 477.036, 57.405 485.081, 56.459 486.600 C 55.642 487.911, 51.708 489.942, 46 492 C 39.808 494.233, 36.346 496.069, 35.290 497.681 C 34.431 498.991, 33.903 500.209, 34.115 500.388 C 34.806 500.972, 103.203 496.030, 114.646 494.569 C 127.595 492.915, 134.748 490.190, 139.074 485.263 C 142.602 481.244, 143.803 478.472, 145.034 471.500 C 145.519 468.750, 146.390 430.500, 146.968 386.500 C 148.859 242.716, 152.806 59.885, 154.498 37.750 C 154.782 34.038, 154.627 31, 154.153 31 C 153.679 31, 152.152 32.056, 150.759 33.348 M 196.004 39.215 C 196.006 43.772, 196.442 60.325, 196.973 76 C 199.310 145.048, 201.551 256.859, 202.997 376.500 C 203.575 424.350, 204.498 466.576, 205.048 470.336 C 206.875 482.835, 211.590 488.526, 223.078 492.102 C 230.848 494.520, 240.109 495.520, 278 498.034 C 294.775 499.147, 310.188 500.309, 312.250 500.617 C 314.894 501.011, 316 500.804, 316 499.917 C 316 497.299, 312.478 494.979, 303.794 491.872 C 298.242 489.886, 294.333 487.871, 293.531 486.582 C 292.597 485.080, 292.063 476.840, 291.616 456.987 C 289.693 371.642, 280.146 268.032, 265.931 178.237 C 260.572 144.385, 253.568 107.049, 251.042 98.872 C 246.781 85.077, 242.211 81.865, 223.241 79.330 C 216.595 78.442, 210.652 77.403, 210.035 77.022 C 209.418 76.640, 207.441 67.592, 205.643 56.914 C 202.259 36.826, 201.321 33.778, 197.977 31.988 C 196.081 30.973, 196 31.271, 196.004 39.215 M 1731.399 420.456 C 1696.206 425.923, 1666.385 448.320, 1653.448 479 C 1647.498 493.110, 1646.494 498.728, 1646.570 517.500 C 1646.650 537.442, 1648.222 544.841, 1655.492 559.500 C 1664.818 578.302, 1679.688 592.841, 1699.500 602.528 C 1717.905 611.528, 1737.784 615.068, 1758.857 613.101 C 1786.071 610.560, 1806.813 601.007, 1827.919 581.294 L 1836.339 573.430 1822.095 560.465 C 1814.260 553.334, 1807.483 547.366, 1807.033 547.203 C 1806.584 547.039, 1802.905 549.776, 1798.858 553.285 C 1781.936 567.957, 1770.232 573.315, 1752.228 574.631 C 1731.486 576.147, 1710.438 565.525, 1698.907 547.723 C 1693.195 538.904, 1690.867 531.155, 1690.275 518.988 C 1689.683 506.841, 1691.151 499.388, 1696.181 489 C 1700.541 479.995, 1712.109 468.591, 1721.401 464.139 C 1744.850 452.903, 1772.899 457.516, 1794.878 476.221 C 1798.936 479.674, 1803.007 483.057, 1803.925 483.737 C 1805.371 484.809, 1807.590 483.050, 1820.547 470.567 L 1835.500 456.160 1830.107 451.330 C 1808.971 432.400, 1788.788 422.759, 1764.666 420.069 C 1752.577 418.721, 1741.759 418.847, 1731.399 420.456 M 2095.235 421.430 C 2079.879 424.357, 2064.496 430.508, 2053 438.320 C 2046.935 442.441, 2035.741 453.245, 2030.466 460.070 C 2005.892 491.860, 2005.072 538.590, 2028.509 571.500 C 2033.484 578.485, 2045.396 590.197, 2052.322 594.912 C 2059.243 599.624, 2074.317 606.545, 2082.693 608.856 C 2100.705 613.826, 2123.437 614.135, 2141.051 609.649 C 2176.958 600.503, 2203.285 576.093, 2213.690 542.297 C 2216.196 534.157, 2216.399 532.194, 2216.399 516 C 2216.399 499.810, 2216.196 497.842, 2213.693 489.712 C 2203.394 456.264, 2178.024 432.377, 2143.206 423.344 C 2131.024 420.184, 2106.835 419.219, 2095.235 421.430 M 720 516 L 720 610 792 610 L 864 610 864 590.500 L 864 571 813.500 571 L 763 571 763 496.500 L 763 422 741.500 422 L 720 422 720 516 M 1052.998 494.250 C 1052.996 533.987, 1052.700 576.288, 1052.338 588.250 L 1051.681 610 1073.841 610 L 1096 610 1096 516 L 1096 422 1074.500 422 L 1053 422 1052.998 494.250 M 1297.667 422.667 C 1297.300 423.033, 1297 465.333, 1297 516.667 L 1297 610 1318.492 610 L 1339.984 610 1340.242 552.199 L 1340.500 494.398 1385 546.804 C 1409.475 575.628, 1431.674 601.177, 1434.331 603.581 C 1436.987 605.984, 1440.812 608.409, 1442.831 608.970 C 1444.849 609.530, 1452.237 609.991, 1459.250 609.994 L 1472 610 1472 516.500 L 1472 423 1450.508 423 L 1429.017 423 1428.758 478.652 L 1428.500 534.304 1384.799 482.813 C 1360.763 454.492, 1339.308 429.704, 1337.120 427.727 C 1334.932 425.750, 1331.422 423.656, 1329.321 423.072 C 1325.168 421.919, 1298.753 421.581, 1297.667 422.667 M 2410.664 468.750 C 2410.300 493.913, 2410.002 535.987, 2410.001 562.250 L 2410 610 2482.522 610 L 2555.043 610 2554.772 590.750 L 2554.500 571.500 2504.250 571.241 L 2454 570.982 2454 496.991 L 2454 423 2432.663 423 L 2411.326 423 2410.664 468.750 M 2734 516.436 L 2734 610 2755.492 610 L 2776.984 610 2777.242 552.409 L 2777.500 494.818 2824.134 549.687 C 2863.286 595.752, 2871.571 604.993, 2875.770 607.278 C 2880.543 609.876, 2881.414 610, 2894.885 610 L 2909 610 2909 516.500 L 2909 423 2887.508 423 L 2866.017 423 2865.758 478.899 L 2865.500 534.798 2820.589 481.827 C 2795.887 452.693, 2774.099 427.651, 2772.170 426.178 C 2768.724 423.546, 2768.363 423.495, 2751.331 423.186 L 2734 422.871 2734 516.436 M 2098.788 460.551 C 2079.802 465.155, 2063.950 480.046, 2057.858 499 C 2054.654 508.970, 2054.865 524.026, 2058.353 534.269 C 2064.539 552.435, 2077.328 565.257, 2095.050 571.060 C 2105.474 574.474, 2123.135 574.558, 2133.675 571.244 C 2162.626 562.141, 2178.796 531.981, 2171.022 501.585 C 2168.244 490.724, 2164.689 484.651, 2156.020 475.960 C 2147.681 467.599, 2139.783 463.103, 2128.947 460.549 C 2121.046 458.687, 2106.474 458.688, 2098.788 460.551 M 34 532.817 C 34 535.243, 38.140 538.086, 45.305 540.580 C 58.641 545.224, 57.568 542.424, 58.370 574.696 C 60.701 668.584, 70.722 773.241, 86.527 868.761 C 96.853 931.167, 100.127 943.416, 107.848 948.512 C 111.306 950.794, 119.581 952.647, 134.766 954.537 C 138.170 954.960, 140.328 955.777, 140.868 956.846 C 141.328 957.756, 142.956 966.375, 144.487 976 C 147.531 995.148, 148.835 999.148, 152.590 1000.859 L 155.083 1001.995 154.532 994.747 C 152.705 970.696, 148.833 792.953, 146.980 648 C 145.948 567.328, 145.503 557.837, 142.475 552 C 140.795 548.761, 136.341 544.653, 132.301 542.615 C 124.309 538.584, 120.355 538.093, 67 534.511 C 54.625 533.680, 42.138 532.742, 39.250 532.428 C 36.161 532.092, 34 532.252, 34 532.817 M 272.483 535.022 C 234.031 537.868, 226.546 538.865, 219.012 542.144 C 210.482 545.858, 206.692 551.427, 205.046 562.664 C 204.496 566.424, 203.572 609.100, 202.994 657.500 C 201.542 779.138, 199.685 871.479, 196.856 962.767 C 196.221 983.264, 195.955 1000.288, 196.265 1000.598 C 197.352 1001.685, 200.736 999.049, 201.800 996.288 C 202.390 994.755, 204.232 985.218, 205.892 975.095 C 207.552 964.972, 209.268 956.337, 209.705 955.907 C 210.142 955.476, 215.675 954.433, 222 953.587 C 241.342 951.003, 244.969 949.147, 249.004 939.773 C 254.489 927.029, 267.795 849.532, 276.006 782.500 C 284.971 709.315, 291.953 613.085, 291.990 562.205 C 292.002 545.121, 292.096 544.958, 304.500 540.645 C 311.757 538.121, 316 535.260, 316 532.889 C 316 531.778, 316.960 531.731, 272.483 535.022" stroke="none" fill="#040404" fill-rule="evenodd"/></svg>