<?xml version="1.0" encoding="UTF-8" standalone="no"?>
<!-- Created with Inkscape (http://www.inkscape.org/) -->

<svg
   xmlns:dc="http://purl.org/dc/elements/1.1/"
   xmlns:cc="http://creativecommons.org/ns#"
   xmlns:rdf="http://www.w3.org/1999/02/22-rdf-syntax-ns#"
   xmlns:svg="http://www.w3.org/2000/svg"
   xmlns="http://www.w3.org/2000/svg"
   xmlns:sodipodi="http://sodipodi.sourceforge.net/DTD/sodipodi-0.dtd"
   xmlns:inkscape="http://www.inkscape.org/namespaces/inkscape"
   width="434.35233"
   height="446.73553"
   id="svg2"
   version="1.1"
   inkscape:version="0.48.0 r9654"
   sodipodi:docname="NSU 1960 Logo.svg">
  <defs
     id="defs4" />
  <sodipodi:namedview
     id="base"
     pagecolor="#ffffff"
     bordercolor="#666666"
     borderopacity="1.0"
     inkscape:pageopacity="0.0"
     inkscape:pageshadow="2"
     inkscape:zoom="0.83415185"
     inkscape:cx="217.17616"
     inkscape:cy="222.16894"
     inkscape:document-units="px"
     inkscape:current-layer="layer1"
     showgrid="false"
     inkscape:window-width="1024"
     inkscape:window-height="749"
     inkscape:window-x="-4"
     inkscape:window-y="-4"
     inkscape:window-maximized="1"
     inkscape:snap-global="true"
     inkscape:object-paths="true"
     inkscape:snap-intersection-paths="true"
     inkscape:object-nodes="true"
     inkscape:snap-smooth-nodes="true"
     inkscape:snap-midpoints="true"
     inkscape:snap-object-midpoints="true"
     inkscape:snap-center="true"
     showguides="true"
     inkscape:guide-bbox="true"
     fit-margin-top="5"
     fit-margin-left="5"
     fit-margin-right="5"
     fit-margin-bottom="5" />
  <metadata
     id="metadata7">
    <rdf:RDF>
      <cc:Work
         rdf:about="">
        <dc:format>image/svg+xml</dc:format>
        <dc:type
           rdf:resource="http://purl.org/dc/dcmitype/StillImage" />
        <dc:title></dc:title>
      </cc:Work>
    </rdf:RDF>
  </metadata>
  <g
     inkscape:label="Ebene 1"
     inkscape:groupmode="layer"
     id="layer1"
     transform="translate(-65.888679,-377.06965)">
    <g
       id="g3830"
       transform="matrix(0.63300739,0,0,0.63300739,54.509613,350.35994)">
      <path
         id="rect3051"
         d="m 49.59375,50.09375 c -13.134002,0 -23.71875,10.553498 -23.71875,23.6875 l 0,34.8125 670.375,0 0,-34.8125 c 0,-13.134002 -10.5535,-23.6875 -23.6875,-23.6875 l -622.96875,0 z m -23.71875,631.4375 0,34.78125 c 0,13.134 10.584748,23.71875 23.71875,23.71875 l 622.96875,0 c 13.134,0 23.6875,-10.58475 23.6875,-23.71875 l 0,-34.78125 -670.375,0 z"
         style="fill:#eb2d2f;fill-opacity:1;stroke:none"
         inkscape:connector-curvature="0" />
      <rect
         y="131.51959"
         x="25.919971"
         height="527.08582"
         width="670.28503"
         id="rect3828"
         style="fill:#303390;fill-opacity:1;stroke:none" />
      <g
         style="fill:#ffffff"
         transform="translate(4.4728423,12.27706)"
         id="g3046">
        <path
           style="fill:#ffffff;fill-opacity:1;stroke:none"
           d="m 114.87699,183.03544 0,399.49643 51.03125,0 0,-212.0606 36.9375,212.0606 8.03125,0 12.375,0 38.65625,0 0,-399.49643 -51.03125,0 0,253.77898 -40.21875,-253.77898 -4.75,0 -25.53125,0 -25.5,0 z"
           id="rect3008"
           inkscape:connector-curvature="0" />
        <path
           style="fill:#ffffff;fill-opacity:1;stroke:none"
           d="m 457.94784,183.03544 0,272.53125 c 0,0 -1.17661,48.42341 0.0937,72.59375 2.11838,40.30521 24.31689,54.39158 69.82127,54.375 45.50439,-0.0166 62.78931,-22.212 64.95998,-50.375 2.31243,-30.00225 1.15625,-84.5625 1.15625,-84.5625 l 0,-264.5625 -51.03125,0 0,263.5625 c 0,0 -0.13262,47.86133 -1.125,67.78125 -0.45555,9.14408 -0.14926,21.43743 -15.125,21.25 -15.31872,-0.19172 -16.63032,-12.66089 -16.90625,-21.875 -0.5731,-19.13719 -0.8125,-59.6875 -0.8125,-59.6875 l 0,-271.03125 -51.03125,0 z"
           id="rect3012"
           inkscape:connector-curvature="0"
           sodipodi:nodetypes="ccszsccccssscccc" />
        <path
           style="fill:#ffffff;fill-opacity:1;stroke:none"
           d="m 358.92163,183.03544 c -50.3911,0 -64.68469,30.51872 -64.9375,60.6875 -0.085,10.1398 0,31.625 0,31.625 l 0,15.8125 c 0,0 -2.12173,29.62573 0.53125,44.0625 1.9148,10.4198 4.11467,21.7077 10.9375,29.8125 9.7686,16.27071 65.59083,60.99179 67.24583,78.09375 -0.10419,4.34164 0.24494,7.85748 0.23498,10.97562 l -0.44956,34.77438 0,31.625 c -0.098,9.57093 -3.36489,17.278 -13.3125,17.375 -9.94761,0.097 -14.18615,-8.83646 -14.21875,-16.03125 -0.0223,-4.92278 -0.006,-12.8185 0,-19.5 l 0,-12.125 0,-34.65625 -51.0625,0 0,34.65625 c 0,0 -0.085,21.4852 0,31.625 0.25281,30.16878 14.5464,60.6875 64.9375,60.6875 50.3911,0 64.94213,-32.69025 64.71875,-62.03125 l 0,-31.625 c 0,0 0.47165,-15.24419 0.0913,-27.30288 -0.38037,-12.05869 -0.17709,-19.70897 -1.10668,-25.41587 -2.95975,-18.17045 -7.93343,-32.0729 -18.10959,-44.75 -18.79619,-23.41561 -41.22592,-39.62816 -56.1875,-63.65625 -1.611,-2.58724 -2.55159,-5.47576 -3.127,-8.46875 -1.36248,-9.33467 -0.33572,-18.62888 -0.0605,-28.125 l 0,-15.8125 0,-12.125 c -0.006,-6.6815 -0.0223,-14.57722 0,-19.5 0.0326,-7.19479 4.27114,-16.12821 14.21875,-16.03125 9.94761,0.097 13.21453,7.80407 13.3125,17.375 l 0,31.625 0,31.65625 51.0625,0 0,-31.65625 0,-31.625 c 0.22338,-29.341 -14.32765,-62.03125 -64.71875,-62.03125 z"
           id="rect3016"
           inkscape:connector-curvature="0"
           sodipodi:nodetypes="ssccscccccsscccccsscccsssccccssccccccs" />
      </g>
    </g>
  </g>
</svg>
