<svg viewBox="0 0 364 364" xmlns="http://www.w3.org/2000/svg" xmlns:xlink="http://www.w3.org/1999/xlink">

<linearGradient id="a">
<stop stop-color="#999"/>
<stop stop-color="#fff" offset="1"/>
</linearGradient>

<radialGradient id="b" cx="187" cy="240" r="106" gradientUnits="userSpaceOnUse" spreadMethod="reflect" xlink:href="#a"/>

<radialGradient id="c" cx="180" cy="192" r="80" gradientUnits="userSpaceOnUse" xlink:href="#a"/>

<circle cx="182" cy="182" r="182" fill="#24399e"/>

<path d="m217 21-65 71 60 180-65 71a164 164 0 0 1 70-322" fill="#e30000"/>
<path id="s" d="m189 252c0-37-45-85-45-130s30-70 73-101c-34 31-55 56-55 94s41 93 41 135-22 62-56 93c25-31 42-54 42-91"/>

<use fill="url(#c)" xlink:href="#s"/>
<use transform="rotate(180 182 182)" fill="url(#b)" xlink:href="#s"/>

<g fill="none" stroke="#fff" stroke-width="4">
<circle cx="182" cy="182" r="173"/>
<circle cx="182" cy="182" r="165"/>
</g>
</svg>
