<?xml version="1.0" encoding="UTF-8" standalone="no"?>
<!-- Created with Inkscape (http://www.inkscape.org/) -->

<svg
   xmlns:dc="http://purl.org/dc/elements/1.1/"
   xmlns:cc="http://creativecommons.org/ns#"
   xmlns:rdf="http://www.w3.org/1999/02/22-rdf-syntax-ns#"
   xmlns:svg="http://www.w3.org/2000/svg"
   xmlns="http://www.w3.org/2000/svg"
   version="1.1"
   width="422"
   height="193"
   id="svg2985">
  <metadata
     id="metadata2991">
    <rdf:RDF>
      <cc:Work
         rdf:about="">
        <dc:format>image/svg+xml</dc:format>
        <dc:type
           rdf:resource="http://purl.org/dc/dcmitype/StillImage" />
        <dc:title></dc:title>
      </cc:Work>
    </rdf:RDF>
  </metadata>
  <defs
     id="defs2989" />
  <path
     d="m 19.7853,83.620889 c 7.165932,-17.722475 21.893926,-35.387415 38.152467,-45.282565 2.706266,-1.647067 7.411926,-4.645238 10.214191,-4.693982 4.913927,0.305664 7.070238,3.108954 6.509551,7.792795 -0.758114,10.450695 -6.798626,20.02099 -13.439072,29.491296 -7.614746,9.153505 -14.447933,18.120752 -32.521569,24.554265 -0.479407,0.17065 -1.860217,0.720455 -2.064048,1.203956 -3.521945,13.951906 -8.503573,28.789416 -8.718058,41.063826 0.216865,4.30104 -1.364528,9.05164 2.98646,12.31915 5.330126,3.49153 11.629368,5.63074 19.696663,2.76584 5.403926,-2.35609 14.309732,-6.19213 13.878372,-8.95938 -0.370895,-5.50408 -1.483606,-9.35774 0.395952,-16.95153 1.385418,-5.8683 2.794874,-11.91062 5.599613,-19.03868 2.809275,-6.45399 6.307102,-14.416084 14.558994,-17.545454 5.519535,-1.074191 8.01916,1.351867 8.586074,3.733075 0.07406,4.486012 -0.214431,10.026609 -1.711909,16.623509 -1.872643,8.69362 -4.564828,16.33841 -9.487318,22.57378 -1.430247,2.46669 -0.510142,3.88348 0.373308,4.47969 7.007413,3.48962 12.203704,1.24401 17.126857,-1.86653 7.137247,-4.085 13.451902,-10.73228 18.491992,-18.13744 4.39573,-6.09014 6.01053,-14.4911 7.83946,-21.278534 0.90416,-4.018152 1.86337,-7.087138 -0.52794,-13.220394 -3.09097,-4.071625 -5.3343,-9.582539 -7.27012,-15.940942 -0.97338,-4.345181 -2.95863,-11.933975 -0.56934,-16.163507 2.01328,-3.829986 5.83397,-7.87185 11.19923,-6.346228 7.38821,3.994254 7.85906,12.662397 8.95938,20.905223 0.65992,7.482542 -1.69029,17.03484 0,19.873937 1.47985,3.360869 11.01074,5.860111 14.60234,4.127085 3.2585,-0.687437 9.66989,-11.118253 10.73728,-17.96211 14.18384,-1.335447 15.20665,-3.842023 23.09703,-7.065509 1.82332,-0.489155 0.86464,1.971418 0.14568,3.036528 -10.46589,15.50476 -22.36422,35.586711 -18.98308,42.894941 3.06505,3.741 6.0934,0.28119 18.31341,-10.41032 5.47972,-4.794297 10.35028,-12.463684 12.37101,-17.047448 11.87532,-36.831235 24.23827,-65.919001 47.97552,-73.8165434 3.21855,0.8134794 6.46104,1.5471754 7.62078,9.2233494 0.19191,11.013051 -6.10703,20.092185 -13.81238,31.731141 -5.78719,7.058481 -8.18599,11.877768 -18.0734,20.641254 -4.92089,5.370111 -10.29303,10.160041 -10.45261,21.651838 0.93142,8.240059 8.81871,7.604119 13.06577,5.226305 7.67704,-1.891789 13.96745,-9.016816 16.95347,-20.814642 9.25803,-30.038803 25.98399,-57.190715 41.2825,-70.6457058 3.93834,-3.4369918 13.3767,-9.0685422 15.67892,-0.3733075 1.6153,9.0857893 0.24371,18.1155943 -11.19923,35.4642163 -7.66714,10.718408 -15.18282,16.642915 -26.13152,31.867011 -3.93009,8.944755 0.58161,14.181413 5.97292,13.67651 8.85204,-4.107131 18.41617,-12.841804 29.00865,-32.851064 1.5923,-4.842411 2.46744,-8.214311 2.34918,-12.692457 7.71502,-2.907314 11.02508,1.522855 23.67301,-6.874165 2.50338,-1.215178 1.41645,2.270254 0.0188,3.887705 -8.59573,8.461638 -11.41665,18.243117 -16.00694,26.704754 -4.36594,10.036348 -1.15713,11.065414 2.08522,12.801796 6.95846,0.07782 10.89356,-5.411233 17.10809,-15.988175 4.35014,-7.36802 8.60613,-14.833874 11.02584,-26.240867 8.1934,-2.914177 14.43809,-0.133613 25.93161,-5.490274 2.21054,1.617666 1.65366,3.235332 0.37331,4.852998 -3.43308,1.822162 -6.2172,6.240172 -8.95938,10.825919 -8.6599,16.845099 -17.75733,34.01834 -23.7183,48.839238 12.01248,-5.157122 24.5529,-15.66016 35.77348,-25.78475 -1.56085,-6.813778 -2.70718,-13.627557 -0.10934,-20.441335 2.12537,-8.435081 4.84163,-10.103081 8.97814,-13.175104 8.43788,0.437335 12.26785,4.484117 13.79362,9.068721 -0.37494,1.573028 -0.54744,3.936512 -3.35977,4.106383 -3.1366,-0.214337 -5.75193,-1.685425 -10.49789,2.722492 -4.36992,6.047346 -2.56377,10.915251 -1.44795,11.463194 0.63726,0.408483 1.14125,-0.07557 1.70998,-0.627288 11.49434,-11.150609 23.24149,-21.816928 33.92763,-36.748756 1.37353,-6.48033 -0.26182,-14.16421 4.3063,-19.3667023 2.82589,-3.0146511 3.97678,-3.5713923 8.15324,-4.9707458 2.23877,-0.74530748 7.73149,-0.9220138 8.45603,0.121633 1.25831,1.7674012 -0.6143,4.7023385 -2.88998,4.9313597 -0.68891,0.069331 -0.97812,0.2505961 -1.02684,1.0376757 -0.19402,9.0834487 0.11398,18.3507337 1.11993,23.8463927 6.42466,35.807404 -3.71342,47.313971 -15.67892,55.294807 -6.36504,3.250885 -20.91131,4.534447 -30.61122,0 -5.46332,-3.336898 -7.30219,-2.848702 -12.05518,-12.428489 -12.90707,12.489264 -27.16895,23.17211 -42.18375,32.851066 l 1.97587,1.27454 c 9.67171,-2.21849 19.40811,-4.96492 31.53123,-7.44738 1.39498,0.41937 2.40654,1.65378 1.86654,5.29812 -4.29732,11.33194 -5.16771,17.04556 -6.51962,25.33963 -15.23897,1.56954 -30.47794,2.67058 -45.71691,5.55432 -7.20244,9.6512 -10.85538,18.82335 -24.04494,26.27289 -4.76355,1.92836 -10.44429,0.96346 -9.75266,-7.6528 -0.15342,-4.61379 3.46308,-7.97094 7.46615,-11.19923 1.03984,-1.38629 0.2691,-2.456 -1.68085,-2.61121 -3.37354,0.25642 -10.58379,2.15086 -16.07876,3.50211 -70.19154,16.65953 -99.85437,25.85351 -149.37283,45.86312 3.10153,-11.1081 5.54166,-22.8776 9.31393,-33.31495 57.44892,-20.88169 118.14033,-39.74541 182.6302,-46.35418 l 4.36258,-9.18905 c 1.52342,-4.131969 2.25494,-4.504426 5.62614,-11.444435 2.48538,-5.08656 0.0243,-7.017185 -2.23207,-5.015398 -7.71338,8.765045 -10.11389,12.242841 -20.9958,16.753553 -6.3871,1.41718 -7.79674,-0.3139 -10.07931,-4.106386 -1.47792,-3.126206 -0.96371,-8.24454 -0.37331,-13.439072 -9.22755,14.220555 -25.36375,27.418568 -32.47775,28.371378 -5.44208,1.27646 -10.49053,-0.63802 -16.95347,-12.73775 -10.1015,8.82699 -17.90827,23.03956 -31.2032,23.56366 -7.87861,1.4471 -13.37985,-1.86055 -14.93231,-13.06576 -10.52662,11.34563 -20.81852,22.55888 -29.97394,27.7341 -5.26639,2.32158 -11.15294,0.66559 -13.42031,-4.57027 -2.87949,-11.76845 1.8452,-22.78725 6.48015,-33.18944 0.30504,-0.872308 -0.99889,-1.242611 -1.58713,-1.143861 -2.51414,0.422061 -9.04504,-1.356612 -14.25902,-5.853913 -0.26087,-0.225018 -1.02384,-0.13584 -0.99603,0.579093 1.48288,13.551011 -3.86267,25.583911 -13.30709,41.571391 -3.56228,6.28406 -13.389435,21.2469 -25.290916,27.2506 -4.16094,2.09899 -7.77605,2.50711 -10.305285,2.49851 -7.030849,0.31176 -15.55826,1.16663 -19.889463,-8.76707 -0.330443,-0.60996 -1.258522,-0.60171 -1.949029,0.27432 C 48.037676,167.38384 39.10457,175.77681 26.504836,178.44101 19.906346,179.04335 6.3263571,179.7471 2.6131528,156.41586 -0.65516084,139.04434 4.7478312,109.44437 11.09667,98.589388 12.235998,96.288136 13.879489,93.176994 11.690282,92.13062 8.9526932,91.204043 7.4689538,90.303796 5.2263056,88.473888 3.4278565,87.107633 -1.6258925,79.771651 0.75696619,74.059172 1.9997615,70.667418 6.7649404,64.39432 12.923428,65.811467 c 4.626336,1.27386 8.121802,3.241063 7.268175,6.170897 -1.013036,3.442113 -2.081988,3.381219 -4.815998,3.822399 -0.69847,0.26635 -0.738114,0.770659 -0.772535,1.117349 -0.362297,3.649132 0.06409,5.298502 0.492554,6.278807 0.502902,1.356833 3.780192,2.281883 4.689676,0.41997 z"
     id="path2995"
     style="fill:#000000;stroke:#000000;stroke-width:1px;stroke-linecap:butt;stroke-linejoin:miter;stroke-opacity:1" />
  <path
     d="m 155.47733,50.061168 c 0.53819,6.829106 5.53264,8.18507 10.03079,8.578969 11.38544,-0.714282 17.20733,-5.40397 18.74175,-14.782224 0.5145,-5.434927 -9.16266,-11.04527 -17.81786,-6.731191 -7.09382,4.311482 -9.98629,7.435107 -10.95468,12.934446 z"
     id="path3776"
     style="fill:#000000;stroke:#000000;stroke-width:1px;stroke-linecap:butt;stroke-linejoin:miter;stroke-opacity:1" />
  <path
     d="m 31.940164,87.148713 c -0.0049,0.791079 0.554668,0.503343 1.40725,0.137565 C 38.37752,85.128242 56.862943,67.716592 57.149136,58.508153 57.33708,54.929977 54.584217,52.67377 52.133738,53.888708 37.785807,65.821681 33.193781,76.817313 31.940164,87.148713 z"
     id="path3778"
     style="fill:#ffffff;stroke:#ffffff;stroke-width:1px;stroke-linecap:butt;stroke-linejoin:miter;stroke-opacity:1" />
  <path
     d="m 209.19487,63.523551 c -1.01188,-14.166298 11.67449,-38.405758 19.92961,-42.102943 2.6291,-0.904209 3.9744,0.287505 4.58079,3.656899 0.52208,10.280434 -12.23053,28.200613 -22.70127,38.143419 -0.81412,0.824977 -1.79578,1.083178 -1.80913,0.302625 z"
     id="path3780"
     style="fill:#ffffff;stroke:#ffffff;stroke-width:1px;stroke-linecap:butt;stroke-linejoin:miter;stroke-opacity:1" />
  <path
     d="m 252.35369,57.386288 c -0.32171,1.707549 0.62418,2.504945 1.6828,1.550814 9.78572,-12.366835 24.66476,-26.749022 26.95776,-38.96832 -0.0679,-4.028768 -2.26641,-5.096396 -5.8073,-2.837659 -16.09574,14.4463 -19.76782,27.143173 -22.83326,40.255165 z"
     id="path3782"
     style="fill:#ffffff;stroke:#ffffff;stroke-width:1px;stroke-linecap:butt;stroke-linejoin:miter;stroke-opacity:1" />
  <path
     d="m 364.54021,68.934901 c 15.79983,-11.752073 25.91593,-23.88201 35.20775,-36.358316 0.57224,-0.464931 1.10238,-0.139517 1.09446,0.405099 -0.15218,10.466659 2.74285,26.159922 -4.88998,35.557265 -5.75724,6.403317 -11.70871,10.666566 -22.83325,8.842938 -2.81134,-0.635077 -7.26396,-3.479436 -8.62863,-7.244011 -0.15803,-0.435939 -0.33187,-0.932208 0.0496,-1.202975 z"
     id="path3784"
     style="fill:#ffffff;stroke:#ffffff;stroke-width:1px;stroke-linecap:butt;stroke-linejoin:miter;stroke-opacity:1" />
  <path
     d="m 277.43068,146.3436 c 0.051,1.46063 1.31657,2.3921 2.5077,2.44171 2.84655,-0.67443 7.2721,-4.67849 6.33524,-7.32512 -0.62389,-1.57477 -3.21869,-0.87599 -4.88342,-0.39596 -2.57438,1.04112 -3.82353,3.24906 -3.95952,5.27937 z"
     id="path3786"
     style="fill:#ffffff;stroke:#ffffff;stroke-width:1px;stroke-linecap:butt;stroke-linejoin:miter;stroke-opacity:1" />
  <path
     d="m 311.08664,130.10955 c -1.42461,-0.44517 -2.39162,-0.95198 -1.38584,-2.70567 1.69355,-1.81769 3.1339,-3.72763 4.88342,-6.13726 1.02021,-1.58238 2.05474,-3.52429 1.12187,-4.81743 -1.66559,-0.81358 -4.67782,0.39985 -6.88189,1.79073 -0.37572,0.2371 -1.33722,0.43253 -1.6311,-0.0749 -0.52752,-1.23549 -0.68381,-3.01924 0.92389,-4.22349 1.84389,-1.57768 5.35457,-2.60783 11.28465,-3.23362 4.0185,-0.37957 6.79964,-0.73233 9.43686,-0.59392 0.87179,0.20608 1.12653,1.02921 1.12187,2.11174 -0.13282,0.93883 -0.10775,2.133 -0.65992,2.90365 -0.40947,1.10084 -5.22718,0.55074 -7.33448,0.37112 -0.86657,-0.0739 -1.19012,0.18665 -1.50846,1.01471 -0.47998,6.72107 -3.2392,12.61885 -4.35548,13.19842 -1.78854,0.86601 -3.55962,0.74758 -5.01539,0.39595 z"
     id="path3788"
     style="fill:#ffffff;stroke:#ffffff;stroke-width:1px;stroke-linecap:butt;stroke-linejoin:miter;stroke-opacity:1" />
  <path
     d="m 267.10155,137.56383 c 2.93507,-5.54691 7.2023,-8.82507 7.27949,-17.11554 0.26251,-1.84758 3.61484,-2.21947 4.75968,-0.56327 0.3016,0.80081 0.48898,0.99205 0.18665,1.95323 -0.37714,2.03766 7.68563,1.27043 9.37936,-1.07326 2.56371,-3.75192 3.83486,-6.13155 7.04617,-6.53288 2.06495,-0.0195 1.83402,1.0442 1.67989,1.44656 -3.16009,5.39457 -4.34598,12.82551 -5.44839,17.84382 -0.0942,0.42877 -0.31618,0.56336 -0.80452,0.82156 -2.42631,0.74834 -6.31048,1.7363 -6.57954,0.55997 -0.66047,-2.4416 3.92842,-7.83266 2.89313,-9.05271 -0.85806,-0.5309 -7.2166,0.11876 -9.00604,1.63322 -2.1313,1.34354 -2.06748,2.83005 -2.58077,8.32396 -0.0477,0.51072 -0.15122,0.72176 -0.779,0.63542 -1.63378,-0.198 -3.61443,-0.3016 -6.67587,1.20532 -0.60872,0.29962 -1.47747,0.6742 -1.35024,-0.0854 z"
     id="path3790"
     style="fill:#ffffff;stroke:#ffffff;stroke-width:1px;stroke-linecap:butt;stroke-linejoin:miter;stroke-opacity:1" />
  <path
     d="m 247.2723,131.89134 c 1.25385,2.70567 0.79191,3.3656 0.79191,3.3656 -1.48958,4.13876 -8.20664,3.43644 -9.30489,0.98988 -1.03097,-2.35308 1.75695,-5.98392 4.88342,-7.32512 2.96489,-1.26651 9.81588,0.2408 10.75671,-1.38583 0.79813,-1.41932 -0.008,-3.85889 -2.70568,-4.75143 -6.46325,-1.31801 -11.50884,1.51447 -15.83809,4.48746 -4.81853,3.50088 -4.85153,8.32615 -4.42147,10.49273 1.23128,4.2148 2.94748,6.1364 5.21337,6.46723 6.11123,0.57722 9.8268,0.0758 13.19841,-2.24373 3.07214,-2.10957 6.71106,-6.70609 6.99516,-10.0308 -0.082,-1.08383 -1.22129,-1.11042 -2.37571,-1.12186 -2.52397,0.30544 -7.64355,-0.3454 -7.19314,1.05587 z"
     id="path3792"
     style="fill:#ffffff;stroke:#ffffff;stroke-width:1px;stroke-linecap:butt;stroke-linejoin:miter;stroke-opacity:1" />
  <path
     d="m 142.80685,168.8469 c -1.04359,3.94225 -3.48879,6.01754 -5.93929,5.21337 -1.09793,-0.63795 -0.53873,-18.62565 8.44699,-22.89924 2.13883,-0.76878 3.44894,1.91823 1.6498,2.96964 -2.93922,1.95776 -2.24656,5.43335 -1.12186,5.87329 0.67375,0.10157 0.82567,-0.19702 1.04921,-0.49868 3.9403,-5.31743 9.22982,-11.98416 13.93099,-12.9637 5.43128,0.0237 4.03012,2.841 1.84778,4.22349 -4.30582,2.57064 -6.81618,4.04084 -8.64497,6.92917 -0.3244,0.58296 -0.79372,1.37729 -0.59392,2.30973 0.83417,2.80668 4.77752,4.1422 6.02323,4.9941 0.80066,0.54754 0.37804,1.41176 -0.4799,1.86907 -1.44968,0.99633 -4.49022,0.91562 -5.14738,0.19797 -1.80782,-1.63922 -1.2953,-4.08281 -5.21338,-4.42147 -2.65182,0.45322 -4.86333,2.29837 -5.8073,6.20326 z"
     id="path3794"
     style="fill:#ffffff;stroke:#ffffff;stroke-width:1px;stroke-linecap:butt;stroke-linejoin:miter;stroke-opacity:1" />
  <path
     d="m 174.48304,159.60801 c 0.22398,-3.98915 4.76671,-8.76466 4.32248,-14.71624 -0.0184,-1.85894 -0.66987,-4.40533 0.42894,-4.61944 4.14982,-0.88602 7.09229,3.93016 10.52809,7.0887 0.35122,0.32288 0.96639,0.31502 1.31749,-0.3905 1.10861,-3.98737 1.08993,-8.52252 3.49758,-10.72371 1.51244,-1.02245 3.30141,-1.34315 5.18038,-0.92389 0.78375,0.26805 1.01877,0.81046 0.92389,1.51782 -2.13374,5.58733 -5.01974,14.70675 -6.19124,16.91364 -0.73228,1.29911 -3.58589,0.9972 -5.59401,0.9972 -0.73583,-0.0104 -1.07567,-0.64646 -1.47916,-1.21485 -1.24514,-1.81638 -2.80854,-4.1971 -4.88341,-3.49758 -1.61459,0.68555 -1.50728,5.44703 -2.17774,8.18302 -0.3056,0.55052 -0.475,1.1351 -1.45183,1.51781 -1.21001,0.45109 -4.49976,1.28153 -4.42146,-0.13198 z"
     id="path3796"
     style="fill:#ffffff;stroke:#ffffff;stroke-width:1px;stroke-linecap:butt;stroke-linejoin:miter;stroke-opacity:1" />
  <path
     d="m 210.11876,150.89706 c 1.76559,-1.20578 4.14372,-1.38373 6.86538,-1.83957 0.32217,-0.0935 0.6062,-0.1597 1.217,-1.87512 1.28472,-3.60812 0.6584,-8.53741 1.97889,-12.35544 0.47168,-1.36382 2.08937,-3.75596 2.00443,-4.51777 -0.12001,-0.50494 -0.73613,-0.74112 -1.20199,-0.71216 -0.41382,0.0257 -6.43133,1.50531 -6.7722,3.02025 -0.17929,2.95864 -0.35067,6.78644 -0.98988,9.20589 -0.77439,2.61509 -3.58864,7.23717 -3.89353,7.88606 -0.18913,0.70963 -0.15295,1.26329 0.7919,1.18786 z"
     id="path3798"
     style="fill:#ffffff;stroke:#ffffff;stroke-width:1px;stroke-linecap:butt;stroke-linejoin:miter;stroke-opacity:1" />
</svg>
